<svg width="900" height="300" viewBox="0 0 900 300" xmlns="http://www.w3.org/2000/svg"><defs><linearGradient id="bg" x1="0%" y1="0%" x2="100%" y2="100%"><stop offset="0%" style="stop-color:#0d0d14"/><stop offset="100%" style="stop-color:#1a1a2e"/></linearGradient><marker id="arr" markerWidth="8" markerHeight="8" refX="6" refY="3" orient="auto"><path d="M0,0 L0,6 L8,3 z" fill="#00fff5"/></marker></defs><rect width="900" height="300" fill="url(#bg)"/><text x="450" y="28" font-family="monospace" font-size="13" font-weight="bold" fill="#00fff5" text-anchor="middle">REAL-TIME FRAUD DETECTION — Kafka + Flink CEP + Redis + XGBoost</text><rect x="20" y="100" width="120" height="55" rx="4" fill="#0a0a1a" stroke="#00fff5" stroke-width="1.5"/><text x="80" y="124" font-family="monospace" font-size="10" fill="#00fff5" text-anchor="middle">TRANSACTIONS</text><text x="80" y="140" font-family="monospace" font-size="9" fill="#7b7a99" text-anchor="middle">100K events/sec</text><rect x="190" y="100" width="120" height="55" rx="4" fill="#0a0a1a" stroke="#ff6b35" stroke-width="1.5"/><text x="250" y="124" font-family="monospace" font-size="10" fill="#ff6b35" text-anchor="middle">APACHE KAFKA</text><text x="250" y="140" font-family="monospace" font-size="9" fill="#7b7a99" text-anchor="middle">12 partitions</text><rect x="360" y="55" width="120" height="55" rx="4" fill="#0a0a1a" stroke="#7b2fff" stroke-width="1.5"/><text x="420" y="79" font-family="monospace" font-size="10" fill="#7b2fff" text-anchor="middle">REDIS</text><text x="420" y="95" font-family="monospace" font-size="9" fill="#7b7a99" text-anchor="middle">Feature Store</text><rect x="360" y="145" width="120" height="55" rx="4" fill="#0a0a1a" stroke="#ff2d78" stroke-width="2"/><text x="420" y="169" font-family="monospace" font-size="10" fill="#ff2d78" text-anchor="middle">FLINK CEP</text><text x="420" y="185" font-family="monospace" font-size="9" fill="#7b7a99" text-anchor="middle">Pattern Engine</text><rect x="540" y="100" width="120" height="55" rx="4" fill="#0a0a1a" stroke="#ffe66d" stroke-width="1.5"/><text x="600" y="124" font-family="monospace" font-size="10" fill="#ffe66d" text-anchor="middle">ML SCORER</text><text x="600" y="140" font-family="monospace" font-size="9" fill="#7b7a99" text-anchor="middle">XGBoost ONNX</text><rect x="720" y="70" width="120" height="55" rx="4" fill="#0a0a1a" stroke="#00fff5" stroke-width="1.5"/><text x="780" y="94" font-family="monospace" font-size="10" fill="#00fff5" text-anchor="middle">ALERT SERVICE</text><text x="780" y="110" font-family="monospace" font-size="9" fill="#7b7a99" text-anchor="middle">BLOCK / REVIEW</text><rect x="720" y="160" width="120" height="55" rx="4" fill="#0a0a1a" stroke="#ff6b35" stroke-width="1.5"/><text x="780" y="184" font-family="monospace" font-size="10" fill="#ff6b35" text-anchor="middle">GRAFANA</text><text x="780" y="200" font-family="monospace" font-size="9" fill="#7b7a99" text-anchor="middle">Monitoring</text><line x1="140" y1="127" x2="188" y2="127" stroke="#00fff5" stroke-width="1.5" marker-end="url(#arr)"/><line x1="310" y1="117" x2="358" y2="90" stroke="#7b2fff" stroke-width="1.5" marker-end="url(#arr)"/><line x1="310" y1="137" x2="358" y2="162" stroke="#ff2d78" stroke-width="1.5" marker-end="url(#arr)"/><line x1="480" y1="172" x2="538" y2="142" stroke="#00fff5" stroke-width="1.5" marker-end="url(#arr)"/><line x1="420" y1="110" x2="420" y2="57" stroke="#7b2fff" stroke-width="1" stroke-dasharray="3,3"/><line x1="660" y1="117" x2="718" y2="103" stroke="#00fff5" stroke-width="1.5" marker-end="url(#arr)"/><line x1="660" y1="137" x2="718" y2="182" stroke="#ff6b35" stroke-width="1.5" marker-end="url(#arr)"/><rect x="20" y="240" width="860" height="35" rx="4" fill="#070710" stroke="#00fff5" stroke-width="0.5" stroke-opacity="0.3"/><text x="100" y="262" font-family="monospace" font-size="10" fill="#00fff5" text-anchor="middle">⚡ 100K TPS</text><text x="280" y="262" font-family="monospace" font-size="10" fill="#7b2fff" text-anchor="middle">🎯 99.2% Precision</text><text x="460" y="262" font-family="monospace" font-size="10" fill="#ff2d78" text-anchor="middle">⏱ &lt;100ms Latency</text><text x="640" y="262" font-family="monospace" font-size="10" fill="#ffe66d" text-anchor="middle">🛡 Exactly-Once</text><text x="810" y="262" font-family="monospace" font-size="10" fill="#00fff5" text-anchor="middle">🔒 Real-time Block</text></svg>